<svg width="34" height="56" viewBox="0 0 34 56" fill="none" xmlns="http://www.w3.org/2000/svg">
<path d="M0.229815 16.9739C4.05249 16.1163 7.69167 14.7687 11.0789 13V24.2181C12.803 21.9648 15.3666 21.2118 17.9601 21.2118C21.87 21.2118 24.0888 23.6704 24.0888 28.2304V39.4699C24.0888 41.479 24.7094 42.3006 26.4035 42.372C26.5019 42.3804 26.5931 42.4263 26.658 42.5002C26.7229 42.574 26.7564 42.67 26.7513 42.7679V43.265H14.3141L14.3052 42.7679C14.3051 42.6853 14.3303 42.6047 14.3774 42.5367C14.4245 42.4686 14.4913 42.4164 14.569 42.3869C15.7234 41.9672 16.0952 41.0891 16.0952 39.4758V28.9031C16.0772 26.2034 15.6064 24.9384 13.6965 24.9384C11.9544 24.9384 11.4027 26.2451 11.4027 28.9031V39.4877C11.4027 41.0861 11.8015 41.9999 12.9019 42.3958C12.9885 42.4234 13.064 42.4773 13.1179 42.55C13.1717 42.6227 13.2011 42.7104 13.2018 42.8006V43.265H0.761582L0.74659 42.756C0.747126 42.652 0.787335 42.5522 0.859113 42.4765C0.93089 42.4008 1.0289 42.355 1.13338 42.3482C2.75249 42.244 3.42412 41.4522 3.42412 39.4758V22.2268C3.40113 21.4634 3.21776 20.7133 2.88576 20.0244C2.55377 19.3355 2.08046 18.723 1.49618 18.2263L0.179901 17.1666L0 17.0416C0.0756974 17.0197 0.152302 16.9971 0.229815 16.9739Z" fill="#000"/>
<path d="M29.7224 21.5551C32.0848 21.5551 33.9999 19.64 33.9999 17.2775C33.9999 14.9151 32.0848 13 29.7224 13C27.36 13 25.4448 14.9151 25.4448 17.2775C25.4448 19.64 27.36 21.5551 29.7224 21.5551Z" fill="#000"/>
</svg>
