<svg width="22" height="23" viewBox="0 0 22 23" fill="none" xmlns="http://www.w3.org/2000/svg">
<path d="M20.44 11.0499L11.25 20.2399C10.1242 21.3658 8.59718 21.9983 7.005 21.9983C5.41282 21.9983 3.88584 21.3658 2.76 20.2399C1.63416 19.1141 1.00166 17.5871 1.00166 15.9949C1.00166 14.4027 1.63416 12.8758 2.76 11.7499L11.95 2.55992C12.7006 1.80936 13.7185 1.3877 14.78 1.3877C15.8415 1.3877 16.8594 1.80936 17.61 2.55992C18.3606 3.31048 18.7822 4.32846 18.7822 5.38992C18.7822 6.45138 18.3606 7.46936 17.61 8.21992L8.41 17.4099C8.03472 17.7852 7.52573 17.996 6.995 17.996C6.46427 17.996 5.95528 17.7852 5.58 17.4099C5.20472 17.0346 4.99389 16.5256 4.99389 15.9949C4.99389 15.4642 5.20472 14.9552 5.58 14.5799L14.07 6.09992" stroke="white" stroke-width="2" stroke-linecap="round" stroke-linejoin="round"/>
</svg>
